<svg width="23" height="20" viewBox="0 0 23 20" fill="none" xmlns="http://www.w3.org/2000/svg">
<path d="M20.0626 8.94489V16.6751C20.0626 17.9595 19.0185 18.9999 17.7294 18.9999H5.27041C3.98134 18.9999 2.93726 17.9595 2.93726 16.6751V9.05532" stroke="#656565" stroke-width="1.2" stroke-linecap="round" stroke-linejoin="round"/>
<path d="M4.18557 1C3.43896 1 2.77401 1.47078 2.52903 2.17406L1.1408 6.17863C0.63334 7.6433 1.53744 8.93941 3.21147 8.93941C4.44221 8.93941 5.63212 8.2187 6.26207 7.24226C6.55955 8.2187 7.50448 8.93941 8.73521 8.93941C9.96595 8.93941 11.0334 8.2187 11.5 7.24226C11.9608 8.2187 13.0282 8.93941 14.2648 8.93941C15.4955 8.93941 16.4405 8.2187 16.7379 7.24226C17.3679 8.2187 18.5578 8.93941 19.7885 8.93941C21.4626 8.93941 22.3667 7.6433 21.8592 6.17863L20.471 2.17406C20.226 1.47078 19.561 1 18.8144 1H4.18557Z" stroke="#656565" stroke-width="1.2" stroke-linecap="round" stroke-linejoin="round"/>
<path d="M14.0198 18.9944H9.03271V14.4842C9.03271 13.1765 10.0943 12.1187 11.4067 12.1187H11.6517C12.9641 12.1187 14.0257 13.1765 14.0257 14.4842V18.9944H14.0198Z" stroke="#656565" stroke-width="1.2" stroke-linecap="round" stroke-linejoin="round"/>
</svg>
