<svg width="17" height="17" viewBox="0 0 17 17" fill="none" xmlns="http://www.w3.org/2000/svg">
<path d="M5.6589 2.47887C5.56623 2.57375 5.51434 2.70111 5.51434 2.83374C5.51434 2.96637 5.56623 3.09374 5.6589 3.18862L10.8365 8.50005L5.6589 13.8104C5.56623 13.9053 5.51434 14.0327 5.51434 14.1653C5.51434 14.2979 5.56623 14.4253 5.6589 14.5202C5.70395 14.5664 5.7578 14.6032 5.81729 14.6283C5.87678 14.6534 5.9407 14.6664 6.00527 14.6664C6.06985 14.6664 6.13376 14.6534 6.19326 14.6283C6.25275 14.6032 6.3066 14.5664 6.35165 14.5202L11.8575 8.87087C11.9542 8.77166 12.0083 8.6386 12.0083 8.50005C12.0083 8.36151 11.9542 8.22845 11.8575 8.12924L6.35165 2.47993C6.3066 2.43366 6.25275 2.39689 6.19326 2.37178C6.13376 2.34668 6.06985 2.33374 6.00527 2.33374C5.9407 2.33374 5.87678 2.34668 5.81729 2.37178C5.7578 2.39689 5.70395 2.43366 5.6589 2.47993V2.47887Z" fill="#1B74DD"/>
</svg>
