<svg width="39" height="42" viewBox="0 0 39 42" fill="none" xmlns="http://www.w3.org/2000/svg">
<path d="M19.4932 23.2734C19.4932 22.1693 20.3882 21.2743 21.4923 21.2743C22.5964 21.2743 23.4915 22.1693 23.4915 23.2734V40.0008C23.4915 41.1049 22.5964 42 21.4923 42C20.3882 42 19.4932 41.1049 19.4932 40.0008V23.2734Z" fill="#1B74DD"/>
<path d="M19.4932 23.2734C19.4932 22.1693 20.3882 21.2743 21.4923 21.2743C22.5964 21.2743 23.4915 22.1693 23.4915 23.2734V40.0008C23.4915 41.1049 22.5964 42 21.4923 42C20.3882 42 19.4932 41.1049 19.4932 40.0008V23.2734Z" fill="#1B74DD"/>
<path d="M21.8495 21.3065C21.2765 21.99 22.0242 22.9773 22.8375 22.6109L36.3753 18.1747C37.8586 17.6886 38.7214 16.1462 38.3593 14.6279L37.3271 10.2997C36.755 7.90112 33.6942 7.17864 32.11 9.06826L21.8495 21.3065Z" fill="#1B74DD"/>
<path d="M19.4552 23.9399C20.2629 24.3546 21.2476 23.9551 21.5318 23.0973C21.6774 22.6579 21.6075 22.1749 21.343 21.7927L14.8799 12.4546C14.6264 12.0884 14.2948 11.7825 13.909 11.5593L9.64124 9.08929C6.98328 7.55101 4.01247 10.4999 5.5397 13.1606L8.05282 17.5388C8.34298 18.0443 8.77382 18.4554 9.29284 18.7219L19.4552 23.9399Z" fill="#1B74DD"/>
</svg>
